Coordinates
version=1
nRows=6
nColumns=107
inDegrees=yes

Units are S.I. units (second, meters, Newtons, ...)
If the header above contains a line with 'inDegrees', this indicates whether rotational values are in degrees (yes) or radians (no).

endheader
time	sternoclavicular_r2	sternoclavicular_r3	unrotscap_r3	unrotscap_r2	acromioclavicular_r2	acromioclavicular_r3	acromioclavicular_r1	unrothum_r1	unrothum_r3	unrothum_r2	elv_angle	shoulder_elv	shoulder1_r2	shoulder_rot	elbow_flexion	pro_sup	deviation	flexion	proximal_distal_r1	proximal_distal_r3	cmc_flexion	cmc_abduction	mp_flexion	ip_flexion	mcp2_flexion	mcp2_abduction	pm2_flexion	md2_flexion	mcp3_flexion	mcp3_abduction	pm3_flexion	md3_flexion	mcp4_flexion	mcp4_abduction	pm4_flexion	md4_flexion	mcp5_flexion	mcp5_abduction	pm5_flexion	md5_flexion	bicpt_tx	bicpt_ty	bicpt_tz	bicpt2_tx	bicpt2_ty	bicpt2_tz	ptpt_tx	ptpt_ty	ptpt_tz	FCUpt_tx	FCUpt_ty	FCUpt_tz	EDCpt_tx	EDCpt_ty	EDCpt_tz	APLpt_tx	APLpt_ty	APLpt_tz	FPLpt_tx	FPLpt_ty	FPLpt_tz	FPLpt2_tx	FPLpt2_ty	FPLpt2_tz	PEC1pt2_tx	PEC1pt2_ty	PEC1pt2_tz	PEC1pt3_tx	PEC1pt3_ty	PEC1pt3_tz	PEC2pt2_tx	PEC2pt2_ty	PEC2pt2_tz	PEC2pt3_tx	PEC2pt3_ty	PEC2pt3_tz	PEC3pt2_tx	PEC3pt2_ty	PEC3pt2_tz	PEC3pt3_tx	PEC3pt3_ty	PEC3pt3_tz	DELT2pt2a_tx	DELT2pt2a_ty	DELT2pt2a_tz	DELT2pt2_tx	DELT2pt2_ty	DELT2pt2_tz	LAT1pt2_tx	LAT1pt2_ty	LAT1pt2_tz	LAT1pt3_tx	LAT1pt3_ty	LAT1pt3_tz	LAT2pt2_tx	LAT2pt2_ty	LAT2pt2_tz	LAT2pt3_tx	LAT2pt3_ty	LAT2pt3_tz	LAT3pt2_tx	LAT3pt2_ty	LAT3pt2_tz	LAT3pt3_tx	LAT3pt3_ty	LAT3pt3_tz
      0.50000000	     -0.32267549	      0.13667011	     -0.13667011	      0.32267549	     -0.06533522	      0.52801630	      0.23733969	     -0.23733969	     -0.52801630	      0.06533522	     98.61672164	     76.39629118	     -1.72118649	    -20.23769883	     28.80519968	     18.00645220	      0.04645427	     -0.60799125	      0.06127864	     -0.30399563	     -3.98340286	     -2.69950590	    -30.87475420	    -25.32949703	    -15.27766913	     13.29278528	      9.31226496	    -24.21540008	     45.50119436	     10.22203491	     84.13977448	     65.36452458	     35.98600761	     -5.85761173	     90.60571599	     40.88840388	    -16.62071911	    -13.70252973	    -13.44048913	      4.99204169	      0.00085279	     -0.03090152	     -0.00483179	      0.01598001	     -0.01802507	     -0.00947877	      0.00621953	     -0.06576031	     -0.00150052	      0.00564060	     -0.18388391	     -0.00004815	     -0.00216077	      0.00056022	      0.00017323	      0.00031249	      0.00012500	      0.00062499	      0.00039999	      0.00119997	      0.00067499	     -0.00024908	      0.00010840	      0.00013008	      0.00250410	      0.00878558	      0.00611171	     -0.00819139	      0.01977817	     -0.01875955	      0.00250410	      0.00878558	      0.00611171	      0.00055175	      0.01833513	     -0.00963443	      0.00395661	      0.00488555	      0.01598880	      0.00000000	      0.00780571	      0.00000000	     -0.00717277	     -0.03314753	     -0.00643631	      0.01391304	     -0.00043925	     -0.00338115	     -0.00089129	      0.01493973	     -0.00611171	      0.00246166	      0.02156075	     -0.01782582	     -0.00598438	      0.01294494	     -0.00547507	     -0.01247807	      0.02733292	     -0.03060098	     -0.02342822	      0.01447287	     -0.00734254	     -0.01553393	      0.03157716	     -0.03824062
      0.53333333	     -0.32159296	      0.13621160	     -0.13621160	      0.32159296	     -0.06511603	      0.52624487	      0.23654345	     -0.23654345	     -0.52624487	      0.06511603	     98.81384080	     76.13999165	     -1.72462687	    -21.25691248	     28.73065146	     17.95930504	      0.01945944	     -0.66445080	      0.02609961	     -0.33222540	     -4.45214863	     -2.72089336	    -31.10318966	    -23.79757064	    -13.75944335	     13.46249294	      8.63490377	    -23.23527249	     45.29261667	      9.65893540	     84.00860394	     66.27570785	     35.72891587	     -6.63478951	     91.10542522	     40.09349468	    -16.67223478	    -13.80144866	    -13.59521639	      4.98363057	      0.00085032	     -0.03089297	     -0.00483041	      0.01597755	     -0.01800482	     -0.00948235	      0.00622301	     -0.06575805	     -0.00149672	      0.00563618	     -0.18388459	     -0.00004704	     -0.00215511	      0.00055862	      0.00017301	      0.00031010	      0.00012404	      0.00062019	      0.00039692	      0.00119077	      0.00066981	     -0.00029886	      0.00012232	      0.00014678	      0.00249570	      0.00875611	      0.00609120	     -0.00816391	      0.01971181	     -0.01869661	      0.00249570	      0.00875611	      0.00609120	      0.00054990	      0.01827361	     -0.00960211	      0.00394692	      0.00486916	      0.01596514	      0.00000000	      0.00775305	      0.00000000	     -0.00714871	     -0.03303632	     -0.00639260	      0.01449099	     -0.00047085	     -0.00374687	     -0.00088830	      0.01488961	     -0.00609120	      0.00245340	      0.02148842	     -0.01776601	     -0.00596430	      0.01290151	     -0.00545670	     -0.01243621	      0.02724122	     -0.03049832	     -0.02334962	      0.01442431	     -0.00731791	     -0.01548181	      0.03147122	     -0.03811233
      0.56666667	     -0.32164070	      0.13623182	     -0.13623182	      0.32164070	     -0.06512570	      0.52632299	      0.23657856	     -0.23657856	     -0.52632299	      0.06512570	     98.82238419	     76.15129507	     -1.72477598	    -21.25545482	     28.73938881	     17.96045222	      0.01945320	     -0.66446071	      0.02609099	     -0.33223036	     -4.45222202	     -2.72123333	    -31.10321949	    -23.79752874	    -13.75892956	     13.46361995	      8.63484734	    -23.23523995	     45.29212808	      9.65884644	     84.00877832	     66.27566314	     35.72856255	     -6.63482391	     91.10569965	     40.09351192	    -16.67186677	    -13.80174302	    -13.59504662	      4.98364104	      0.00085061	     -0.03089397	     -0.00483057	      0.01597760	     -0.01800720	     -0.00948226	      0.00622293	     -0.06575811	     -0.00149681	      0.00563628	     -0.18388458	     -0.00004706	     -0.00215525	      0.00055866	      0.00017301	      0.00031009	      0.00012404	      0.00062019	      0.00039692	      0.00119076	      0.00066980	     -0.00029888	      0.00012232	      0.00014678	      0.00249607	      0.00875741	      0.00609211	     -0.00816512	      0.01971474	     -0.01869939	      0.00249607	      0.00875741	      0.00609211	      0.00054998	      0.01827633	     -0.00960353	      0.00394735	      0.00486988	      0.01596619	      0.00000000	      0.00775537	      0.00000000	     -0.00714977	     -0.03304123	     -0.00639452	      0.01449018	     -0.00047081	     -0.00374634	     -0.00088843	      0.01489182	     -0.00609211	      0.00245377	      0.02149161	     -0.01776865	     -0.00596519	      0.01290342	     -0.00545751	     -0.01243806	      0.02724526	     -0.03050285	     -0.02335308	      0.01442645	     -0.00731899	     -0.01548411	      0.03147590	     -0.03811799
      0.60000000	     -0.32004498	      0.13555595	     -0.13555595	      0.32004498	     -0.06480260	      0.52371181	      0.23540485	     -0.23540485	     -0.52371181	      0.06480260	     99.10244866	     75.77349402	     -1.72966403	    -23.19340818	     29.00469994	     20.24387615	      0.01890892	     -0.64010119	      0.02537022	     -0.32005059	     -4.51816843	     -3.36173688	    -30.48123787	    -24.64488448	    -13.62895143	     13.62315278	      8.06320520	    -23.86561006	     44.45367004	      9.69470901	     84.61075896	     65.75851430	     35.14543393	     -6.34937491	     91.27218051	     41.04448731	    -16.34630369	    -13.84409829	    -13.78202446	      4.98358561	      0.00085939	     -0.03092438	     -0.00483547	      0.01609104	     -0.01807927	     -0.00930540	      0.00605421	     -0.06586721	     -0.00168075	      0.00585145	     -0.18385063	     -0.00009921	     -0.00242926	      0.00063682	      0.00018248	      0.00031179	      0.00012471	      0.00062357	      0.00039909	      0.00119726	      0.00067346	     -0.00030620	      0.00012429	      0.00014915	      0.00248369	      0.00871396	      0.00606188	     -0.00812461	      0.01961693	     -0.01860662	      0.00248369	      0.00871396	      0.00606188	      0.00054725	      0.01818565	     -0.00955589	      0.00393302	      0.00484572	      0.01593104	      0.00000000	      0.00767808	      0.00000000	     -0.00711430	     -0.03287730	     -0.00633035	      0.01555082	     -0.00053198	     -0.00448532	     -0.00088402	      0.01481794	     -0.00606188	      0.00244159	      0.02138498	     -0.01768050	     -0.00593560	      0.01283941	     -0.00543044	     -0.01237635	      0.02711010	     -0.03035152	     -0.02323722	      0.01435488	     -0.00728268	     -0.01540729	      0.03131974	     -0.03792888
      0.63333333	     -0.32011839	      0.13558704	     -0.13558704	      0.32011839	     -0.06481746	      0.52383192	      0.23545884	     -0.23545884	     -0.52383192	      0.06481746	     99.11158335	     75.79087337	     -1.72982346	    -23.19387351	     29.01733265	     20.24412116	      0.01891495	     -0.64013737	      0.02537740	     -0.32006868	     -4.51852981	     -3.36193518	    -30.48133760	    -24.64477250	    -13.63132957	     13.62365041	      8.06282647	    -23.86579168	     44.45373746	      9.69481955	     84.61080043	     65.75856226	     35.14554468	     -6.34942843	     91.27236594	     41.04440627	    -16.34684655	    -13.84415384	    -13.78224114	      4.98354529	      0.00085980	     -0.03092583	     -0.00483570	      0.01609105	     -0.01808270	     -0.00930539	      0.00605419	     -0.06586722	     -0.00168077	      0.00585147	     -0.18385062	     -0.00009921	     -0.00242929	      0.00063683	      0.00018248	      0.00031178	      0.00012471	      0.00062356	      0.00039908	      0.00119724	      0.00067345	     -0.00030633	      0.00012431	      0.00014917	      0.00248426	      0.00871596	      0.00606327	     -0.00812647	      0.01962143	     -0.01861089	      0.00248426	      0.00871596	      0.00606327	      0.00054738	      0.01818982	     -0.00955808	      0.00393368	      0.00484683	      0.01593267	      0.00000000	      0.00768163	      0.00000000	     -0.00711593	     -0.03288485	     -0.00633330	      0.01555107	     -0.00053200	     -0.00448551	     -0.00088423	      0.01482134	     -0.00606327	      0.00244215	      0.02138989	     -0.01768455	     -0.00593696	      0.01284235	     -0.00543168	     -0.01237919	      0.02711631	     -0.03035848	     -0.02324255	      0.01435817	     -0.00728435	     -0.01541082	      0.03132692	     -0.03793757
      0.66666667	     -0.31897684	      0.13510354	     -0.13510354	      0.31897684	     -0.06458632	      0.52196394	      0.23461920	     -0.23461920	     -0.52196394	      0.06458632	     99.36259631	     75.52060293	     -1.73420446	    -24.38157423	     28.94227235	     20.75296660	     -0.00543711	     -0.68796085	     -0.00740282	     -0.34398043	     -4.77626476	     -3.41793996	    -30.77920936	    -23.66672909	    -13.24358667	     13.66457471	      7.81710704	    -22.98313242	     44.48124508	      9.42630383	     84.50906049	     66.38422755	     35.00972204	     -6.75984550	     91.71795734	     40.19846179	    -16.58819002	    -13.87201422	    -14.09370675	      4.96976980	      0.00085732	     -0.03091723	     -0.00483432	      0.01611470	     -0.01806231	     -0.00926498	      0.00601659	     -0.06589153	     -0.00172176	      0.00589964	     -0.18384285	     -0.00011030	     -0.00249035	      0.00065446	      0.00018421	      0.00030752	      0.00012301	      0.00061505	      0.00039363	      0.00118089	      0.00066425	     -0.00033627	      0.00013208	      0.00015850	      0.00247540	      0.00868488	      0.00604165	     -0.00809749	      0.01955146	     -0.01854452	      0.00247540	      0.00868488	      0.00604165	      0.00054543	      0.01812496	     -0.00952400	      0.00392340	      0.00482955	      0.01590733	      0.00000000	      0.00762657	      0.00000000	     -0.00709055	     -0.03276758	     -0.00628758	      0.01617626	     -0.00057017	     -0.00496575	     -0.00088107	      0.01476849	     -0.00604165	      0.00243344	      0.02131361	     -0.01762149	     -0.00591579	      0.01279656	     -0.00541231	     -0.01233504	      0.02701962	     -0.03025022	     -0.02315967	      0.01430697	     -0.00725838	     -0.01535587	      0.03121521	     -0.03780229
